<svg width="121" height="43" viewBox="0 0 121 43" fill="none" xmlns="http://www.w3.org/2000/svg">
<path d="M42.066 29.552C42.0433 29.824 42.0093 30.1073 41.964 30.402C41.9187 30.6967 41.8393 30.9687 41.726 31.218C41.6127 31.49 41.4653 31.694 41.284 31.83C41.0347 32.0567 40.74 32.1813 40.4 32.204C40.0827 32.3173 39.7767 32.3513 39.482 32.306C39.1873 32.2607 38.9153 32.1813 38.666 32.068C38.3487 31.864 38.1107 31.626 37.952 31.354C37.816 31.0593 37.714 30.7533 37.646 30.436C37.578 30.1187 37.544 29.79 37.544 29.45C37.544 29.11 37.544 28.7927 37.544 28.498V25.846L37.51 20.644C37.51 20.2813 37.51 19.998 37.51 19.794C37.51 19.59 37.51 19.4087 37.51 19.25C37.51 19.0687 37.4987 18.876 37.476 18.672C37.476 18.4453 37.476 18.128 37.476 17.72C37.476 17.652 37.476 17.5387 37.476 17.38C37.4987 17.1987 37.4873 16.734 37.442 15.986C36.558 17.4593 35.8213 18.6493 35.232 19.556C34.6653 20.44 34.178 21.1313 33.77 21.63C33.3847 22.106 33.0447 22.4347 32.75 22.616C32.4553 22.7747 32.1493 22.8653 31.832 22.888C31.6507 22.9107 31.4693 22.8767 31.288 22.786C31.1067 22.6953 30.9253 22.582 30.744 22.446C30.5853 22.31 30.4267 22.174 30.268 22.038C30.132 21.8793 30.0187 21.732 29.928 21.596C29.384 20.916 28.772 20.1 28.092 19.148C27.412 18.196 26.7093 17.04 25.984 15.68C25.984 15.7027 25.9727 16.0767 25.95 16.802C25.95 17.5273 25.95 18.434 25.95 19.522C25.95 20.5873 25.9387 21.7433 25.916 22.99C25.916 24.214 25.9047 25.3587 25.882 26.424C25.882 27.4893 25.8707 28.3847 25.848 29.11C25.8253 29.8127 25.8027 30.164 25.78 30.164C25.78 30.5493 25.6893 30.912 25.508 31.252C25.3267 31.5693 25.0773 31.83 24.76 32.034C24.4653 32.238 24.114 32.3513 23.706 32.374C23.298 32.3967 22.856 32.2833 22.38 32.034C22.0853 31.8527 21.8587 31.592 21.7 31.252C21.564 30.912 21.4733 30.5947 21.428 30.3C21.4053 29.9827 21.3827 29.6767 21.36 29.382C21.36 29.0873 21.36 28.7813 21.36 28.464L21.394 25.812L21.428 20.576V16.02C21.428 14.048 21.496 12.11 21.632 10.206C21.632 9.95667 21.6547 9.73 21.7 9.526C21.768 9.29933 21.8473 9.084 21.938 8.88C22.1193 8.51733 22.3573 8.24533 22.652 8.064C22.992 7.86 23.3547 7.758 23.74 7.758C23.8987 7.758 24.046 7.76933 24.182 7.792C24.3407 7.792 24.488 7.80333 24.624 7.826C25.0773 7.91667 25.4627 8.18867 25.78 8.642C26.12 9.07267 26.4373 9.44667 26.732 9.764C26.9133 9.968 27.106 10.2173 27.31 10.512C27.514 10.8067 27.718 11.1127 27.922 11.43C28.126 11.7473 28.3187 12.0533 28.5 12.348C28.6813 12.6427 28.84 12.9033 28.976 13.13C29.5653 14.082 30.0867 14.9547 30.54 15.748C31.016 16.5413 31.458 17.2213 31.866 17.788C31.934 17.72 32.0133 17.6293 32.104 17.516C32.1947 17.38 32.2853 17.244 32.376 17.108C32.4893 16.9493 32.58 16.802 32.648 16.666C32.7387 16.53 32.8067 16.4167 32.852 16.326C33.0787 15.9633 33.3053 15.612 33.532 15.272C33.7587 14.9093 33.9967 14.5353 34.246 14.15C34.518 13.742 34.79 13.3 35.062 12.824C35.3567 12.348 35.6967 11.804 36.082 11.192C36.2407 10.92 36.4447 10.5913 36.694 10.206C36.9433 9.82067 37.2267 9.44667 37.544 9.084C37.8613 8.72133 38.19 8.41533 38.53 8.166C38.8927 7.894 39.2553 7.758 39.618 7.758C39.7993 7.758 39.958 7.76933 40.094 7.792C40.23 7.792 40.366 7.80333 40.502 7.826C40.774 7.84867 41.0347 7.97333 41.284 8.2C41.4653 8.38133 41.6013 8.574 41.692 8.778C41.7827 9.07267 41.8393 9.322 41.862 9.526C41.8847 9.68467 41.896 9.832 41.896 9.968C41.9187 10.104 41.93 10.24 41.93 10.376C41.93 11.6453 41.9413 12.9033 41.964 14.15C41.9867 15.3967 41.998 16.6547 41.998 17.924C41.998 19.4653 41.998 21.052 41.998 22.684C42.0207 24.316 42.032 25.9027 42.032 27.444C42.032 27.7613 42.0433 28.1013 42.066 28.464C42.0887 28.8267 42.0887 29.1893 42.066 29.552ZM60.7126 8.948C60.9166 9.22 61.0413 9.53733 61.0866 9.9C61.0866 10.036 61.0753 10.172 61.0526 10.308C61.0526 10.4213 61.0413 10.5347 61.0186 10.648C60.9959 10.8973 60.8486 11.1353 60.5766 11.362C60.4179 11.4753 60.2139 11.5887 59.9646 11.702C59.8286 11.7473 59.6813 11.7813 59.5226 11.804C59.3866 11.804 59.2279 11.8153 59.0466 11.838C58.9106 11.8833 58.7633 11.906 58.6046 11.906C58.4459 11.906 58.2873 11.906 58.1286 11.906H56.5986L49.4926 11.94V12.042L49.4586 17.584C49.6399 17.584 49.8326 17.584 50.0366 17.584C50.2633 17.584 50.5353 17.5727 50.8526 17.55C51.7593 17.55 52.5639 17.55 53.2666 17.55C53.9919 17.55 54.7853 17.5613 55.6466 17.584H55.8506C56.0999 17.584 56.3493 17.5953 56.5986 17.618C56.8706 17.618 57.1426 17.618 57.4146 17.618C57.6639 17.6407 57.9133 17.6747 58.1626 17.72C58.4119 17.7427 58.6613 17.7993 58.9106 17.89C59.3186 18.026 59.6133 18.2413 59.7946 18.536C60.0439 18.8307 60.1686 19.1367 60.1686 19.454C60.1686 19.59 60.1686 19.726 60.1686 19.862C60.1686 19.9753 60.1459 20.1 60.1006 20.236C60.0779 20.4173 59.9306 20.644 59.6586 20.916C59.4773 21.0747 59.2619 21.1767 59.0126 21.222C58.8993 21.2673 58.7633 21.3127 58.6046 21.358C58.4686 21.3807 58.3213 21.4033 58.1626 21.426C58.0039 21.4487 57.8453 21.4713 57.6866 21.494C57.5506 21.494 57.3919 21.494 57.2106 21.494H55.6466L49.3906 21.528L49.2886 29.416V29.688C49.2886 29.8013 49.2773 29.9147 49.2546 30.028C49.2546 30.1187 49.2433 30.2207 49.2206 30.334C49.1753 30.4473 49.1299 30.572 49.0846 30.708C49.0619 30.8213 49.0279 30.9347 48.9826 31.048C48.8239 31.3653 48.6766 31.5807 48.5406 31.694C48.2913 31.8753 47.9853 32 47.6226 32.068C47.0106 32.204 46.4326 32.136 45.8886 31.864C45.7753 31.796 45.6619 31.7167 45.5486 31.626C45.4579 31.5127 45.3786 31.3767 45.3106 31.218C45.2653 31.1273 45.2426 31.0593 45.2426 31.014L45.1406 30.81C45.0726 30.6967 45.0273 30.5833 45.0046 30.47C44.9819 30.334 44.9593 30.2093 44.9366 30.096C44.9366 29.9827 44.9253 29.8693 44.9026 29.756C44.9026 29.6427 44.8913 29.5293 44.8686 29.416C44.8459 29.2347 44.8459 29.0533 44.8686 28.872V28.328L44.9026 25.676L44.9366 20.78C44.9593 20.0547 44.9706 19.318 44.9706 18.57C44.9706 17.822 44.9706 17.0513 44.9706 16.258C44.9479 15.442 44.9366 14.7167 44.9366 14.082C44.9593 13.4473 44.9933 12.756 45.0386 12.008V11.838C45.0613 11.5887 45.0726 11.362 45.0726 11.158C45.0726 10.9313 45.0953 10.7047 45.1406 10.478C45.1859 9.97933 45.2993 9.53733 45.4806 9.152C45.6393 8.76667 45.8659 8.49467 46.1606 8.336C46.5006 8.132 46.8633 8.03 47.2486 8.03C47.4299 8.03 47.5773 8.04133 47.6906 8.064V8.03C48.0986 8.03 48.4273 8.03 48.6766 8.03C48.9259 8.03 49.1639 8.03 49.3906 8.03C49.6173 8.03 49.8666 8.03 50.1386 8.03C50.4106 8.00733 50.7733 7.996 51.2266 7.996C53.0399 7.97333 54.8306 7.97333 56.5986 7.996H56.7686C57.0179 8.01867 57.2673 8.03 57.5166 8.03C57.7886 8.03 58.0606 8.04133 58.3326 8.064C58.5819 8.064 58.8313 8.098 59.0806 8.166C59.3299 8.21133 59.5793 8.27933 59.8286 8.37C60.2139 8.48333 60.5086 8.676 60.7126 8.948ZM76.7248 19.454C77.3821 19.8847 77.9374 20.3947 78.3908 20.984C78.8668 21.5507 79.2408 22.2533 79.5128 23.092C79.8074 24.0213 79.9548 24.962 79.9548 25.914C79.9774 26.8433 79.8074 27.716 79.4447 28.532C79.1048 29.3253 78.5494 30.028 77.7788 30.64C77.0308 31.2293 76.0448 31.6487 74.8208 31.898C74.1634 32.0567 73.3928 32.1813 72.5088 32.272C71.6248 32.3627 70.8314 32.408 70.1288 32.408C69.2448 32.4307 68.3268 32.4307 67.3748 32.408C66.4454 32.408 65.5388 32.3173 64.6548 32.136C64.2694 32.0227 63.9861 31.83 63.8048 31.558C63.6461 31.2633 63.5328 30.9347 63.4648 30.572C63.3741 30.368 63.3288 30.164 63.3288 29.96V10.648C63.3288 10.0133 63.4534 9.526 63.7028 9.186C63.9748 8.82333 64.3261 8.56267 64.7568 8.404C65.1874 8.22267 65.6748 8.12067 66.2188 8.098C66.7628 8.05267 67.3294 8.03 67.9188 8.03C68.3721 8.03 68.8254 8.03 69.2788 8.03C69.7548 8.00733 70.2308 8.00733 70.7067 8.03C71.4548 8.05266 72.2254 8.12066 73.0188 8.234C73.8348 8.32466 74.6054 8.506 75.3308 8.778C75.6708 8.89133 76.0334 9.05 76.4188 9.254C76.8041 9.43533 77.1101 9.662 77.3368 9.934C78.0621 10.5913 78.5948 11.362 78.9348 12.246C79.2974 13.1073 79.4561 13.9913 79.4108 14.898C79.3654 15.782 79.1161 16.632 78.6628 17.448C78.2321 18.264 77.5861 18.9327 76.7248 19.454ZM70.7748 28.464C71.4774 28.4187 72.1914 28.3393 72.9168 28.226C73.6421 28.1127 74.1408 27.8973 74.4128 27.58C74.7074 27.2173 74.9114 26.798 75.0248 26.322C75.1608 25.8233 75.1948 25.3247 75.1268 24.826C75.0814 24.3047 74.9341 23.8173 74.6848 23.364C74.4581 22.888 74.1521 22.514 73.7668 22.242C73.2454 21.834 72.6448 21.5733 71.9647 21.46C71.2847 21.324 70.6161 21.256 69.9588 21.256C69.6414 21.256 69.3468 21.2673 69.0748 21.29C68.8254 21.29 68.5988 21.324 68.3948 21.392C68.2134 21.4373 68.0774 21.5393 67.9868 21.698C67.8961 21.8567 67.8508 22.0947 67.8508 22.412C67.8961 23.0013 67.8961 23.5907 67.8508 24.18C67.8054 24.7693 67.7828 25.336 67.7828 25.88C67.7828 26.1973 67.7714 26.5487 67.7488 26.934C67.7488 27.2967 67.8734 27.6027 68.1228 27.852C68.3721 28.1013 68.7348 28.2713 69.2108 28.362C69.6868 28.4527 70.2081 28.4867 70.7748 28.464ZM71.4548 12.144C70.7521 12.1213 70.1628 12.11 69.6868 12.11C69.2334 12.0873 68.8708 12.1213 68.5988 12.212C68.3494 12.28 68.1681 12.45 68.0548 12.722C67.9641 12.9713 67.9301 13.3567 67.9528 13.878C67.9528 14.3087 67.9414 14.7393 67.9188 15.17C67.9188 15.578 67.9188 15.986 67.9188 16.394C67.9188 16.8473 68.0661 17.1873 68.3608 17.414C68.6554 17.618 69.0181 17.7427 69.4488 17.788C69.9021 17.8333 70.3668 17.8333 70.8428 17.788C71.3414 17.7427 71.7721 17.686 72.1348 17.618C72.9508 17.482 73.5741 17.21 74.0048 16.802C74.4581 16.3713 74.7188 15.748 74.7868 14.932C74.8774 13.912 74.6054 13.2093 73.9708 12.824C73.3588 12.416 72.5201 12.1893 71.4548 12.144ZM99.6612 8.982C99.9105 9.27667 100.035 9.58267 100.035 9.9C100.035 10.036 100.024 10.1833 100.001 10.342C100.001 10.478 99.9899 10.6027 99.9672 10.716C99.8992 10.9653 99.7519 11.2033 99.5252 11.43C99.3439 11.566 99.0945 11.668 98.7772 11.736C98.6185 11.7813 98.4599 11.8153 98.3012 11.838C98.1425 11.8607 97.9725 11.8947 97.7912 11.94C97.6325 11.9627 97.4739 11.974 97.3152 11.974C97.1565 11.974 96.9865 11.974 96.8052 11.974H95.0712C94.6632 11.9967 94.2552 12.008 93.8472 12.008C93.4619 12.008 93.0765 12.008 92.6912 12.008C92.7139 12.7107 92.7252 13.47 92.7252 14.286C92.7252 15.0793 92.7139 16.0087 92.6912 17.074C92.6912 18.1393 92.6799 19.3747 92.6572 20.78C92.6572 22.1853 92.6572 23.8173 92.6572 25.676V28.26C92.6572 28.4867 92.6685 28.6567 92.6912 28.77C92.6912 28.8607 92.6912 28.9513 92.6912 29.042C92.6912 29.11 92.6799 29.2007 92.6572 29.314C92.6119 29.518 92.5779 29.756 92.5552 30.028C92.5552 30.1413 92.5439 30.2547 92.5212 30.368C92.4985 30.4587 92.4645 30.5607 92.4192 30.674C92.3285 30.7647 92.2832 30.8327 92.2832 30.878L92.1812 31.082C92.0679 31.3087 91.8525 31.524 91.5352 31.728C91.0365 31.9773 90.4812 32.034 89.8692 31.898C89.4839 31.8527 89.1892 31.7507 88.9852 31.592C88.7812 31.388 88.6339 31.184 88.5432 30.98C88.4072 30.7307 88.3279 30.4927 88.3052 30.266C88.2372 30.062 88.2032 29.8467 88.2032 29.62V12.144C88.0672 12.144 87.7839 12.144 87.3532 12.144C86.9225 12.144 86.4579 12.144 85.9592 12.144C85.4832 12.1213 85.0299 12.0987 84.5992 12.076C84.1685 12.0533 83.8739 12.0307 83.7152 12.008C83.5792 11.9853 83.3639 11.9513 83.0692 11.906C82.7972 11.8607 82.5705 11.8153 82.3892 11.77C81.9132 11.634 81.5392 11.4187 81.2672 11.124C81.0179 10.8293 80.8932 10.5007 80.8932 10.138C80.8932 10.002 80.8932 9.866 80.8932 9.73C80.8932 9.594 80.9159 9.46933 80.9612 9.356C81.0292 9.084 81.2105 8.85733 81.5052 8.676C81.5959 8.608 81.7319 8.52867 81.9132 8.438C82.1172 8.32467 82.3099 8.24533 82.4912 8.2C82.7632 8.10933 83.1032 8.04133 83.5112 7.996C83.6925 7.97333 83.8739 7.962 84.0552 7.962C84.2365 7.962 84.4292 7.962 84.6332 7.962C85.4265 7.962 86.1745 7.962 86.8772 7.962C87.6025 7.962 88.3619 7.95067 89.1552 7.928C90.4699 7.90533 91.7732 7.90533 93.0652 7.928C94.3799 7.928 95.6832 7.95067 96.9752 7.996C97.2699 8.01867 97.5532 8.05267 97.8252 8.098C98.0972 8.14333 98.3692 8.22267 98.6412 8.336C98.8452 8.404 99.0379 8.49467 99.2192 8.608C99.4005 8.69867 99.5479 8.82333 99.6612 8.982Z" fill="white"/>
<path d="M17.3015 36.9731C17.8091 36.6136 17.5131 35.9805 17.3923 35.4419C17.2319 34.7262 17.1896 34.0317 16.3755 34.0317C15.6516 34.0317 15.5902 34.1149 15.2195 34.6974C15.0126 35.0226 14.497 36.3353 14.8624 36.7008C15.8858 37.7241 18.134 35.5422 16.43 34.9032" stroke="white" stroke-width="4" stroke-linecap="round"/>
<path d="M16.212 36.5374C16.2338 36.7115 16.394 36.9007 16.5388 36.9731" stroke="white" stroke-width="4" stroke-linecap="round"/>
<path d="M18.2436 6.63237C18.3748 5.81181 18.4525 4.00027 17.1907 4.00027C16.7699 4.00027 16.4154 4.51747 16.2354 4.87764C15.8232 5.70198 16.525 6.86765 17.5417 6.80785C18.0602 6.77734 17.4626 5.92636 17.3662 5.75501C17.1569 5.38292 16.6386 5.2786 16.2159 5.23833C15.1371 5.1356 16.362 5.82792 16.6643 6.28143" stroke="white" stroke-width="4" stroke-linecap="round"/>
<path d="M16.4601 4.07958C16.6199 4.09957 16.6678 4.46781 16.5112 4.47384C16.2984 4.48202 16.1151 4.44919 15.9344 4.53955" stroke="white" stroke-width="4" stroke-linecap="round"/>
<path d="M3.45581 20.6804C3.35874 20.451 2.61614 18.7972 2.29657 19.1168C2.12022 19.2932 2.00002 20.0198 2.00002 20.2671C2.00002 20.7134 2.67282 20.9784 2.56167 20.4782C2.54791 20.4163 2.28678 20.1853 2.26063 20.2311C2.14994 20.4248 2.59016 20.4396 2.66501 20.4378C3.19197 20.4253 3.21318 20.151 3.21318 19.7099" stroke="white" stroke-width="4" stroke-linecap="round"/>
<path d="M2.36627 19.2845C2.52376 19.2845 2.74523 19.3794 2.86402 19.2606C2.95536 19.1693 3.05974 19.2356 3.07199 19.3458C3.07484 19.3715 3.11229 19.4166 3.13335 19.4311C3.18902 19.4693 3.14551 19.5465 3.20154 19.5913C3.27512 19.6502 3.39367 19.7056 3.44019 19.7754" stroke="white" stroke-width="4" stroke-linecap="round"/>
<path d="M4.24361 20.6152C4.37335 20.3558 5.18778 19.7251 4.63878 19.4114C4.58435 19.3803 4.42119 19.1876 4.39065 19.1265C4.35129 19.0478 4.29781 18.9934 4.2528 18.9197C4.21704 18.8612 4.16732 18.8972 4.11955 18.8554C3.97291 18.7271 3.61768 18.4458 3.41652 18.4235C3.38853 18.4203 3.20288 18.299 3.15921 18.2672C3.05527 18.1916 2.9439 18.258 2.83756 18.258" stroke="white" stroke-width="2" stroke-linecap="round"/>
<path d="M15.2905 6.57036C14.4525 7.63482 13.649 8.71803 12.8597 9.8177C12.5514 10.2472 12.2962 10.7348 11.9301 11.1179C11.3132 11.7636 10.6778 12.3709 10.0584 13.0116C9.52574 13.5626 8.799 13.9172 8.22427 14.428C7.96573 14.6578 7.66825 14.8143 7.40773 15.0436C7.20464 15.2223 7.00125 15.4042 6.80474 15.59C6.43031 15.9442 6.09381 16.312 5.73695 16.6892C5.39812 17.0474 5.20349 17.5485 4.889 17.9329C4.68096 18.1872 4.43967 18.4723 4.26717 18.7526C4.04145 19.1194 3.98452 19.0679 3.98452 19.5723" stroke="white" stroke-width="2" stroke-linecap="round"/>
<path d="M14.3862 33.7612C14.0565 33.6091 13.762 33.073 13.532 32.7971C13.1171 32.2991 12.6908 31.8107 12.2758 31.3116C11.7648 30.6971 11.2622 30.0989 10.8029 29.4398C10.2886 28.702 9.75868 27.9662 9.29853 27.1912C8.90819 26.5338 8.36247 25.9569 7.9104 25.3383C7.70794 25.0612 7.45665 24.739 7.19436 24.5154C6.93619 24.2954 6.60478 24.1645 6.36211 23.9219C5.92755 23.4873 5.49701 23.0582 5.07134 22.6123C4.66643 22.1881 4.23143 21.7353 3.7366 21.4126C3.42136 21.207 3.25293 20.8724 2.8541 20.8724" stroke="white" stroke-width="2" stroke-linecap="round"/>
<path d="M103.011 3C102.504 3.35953 102.8 3.9926 102.921 4.53127C103.081 5.24691 103.123 5.94148 103.937 5.94148C104.661 5.94148 104.723 5.85824 105.093 5.27572C105.3 4.95054 105.816 3.63781 105.451 3.27236C104.427 2.24901 102.179 4.43091 103.883 5.06993" stroke="white" stroke-width="4" stroke-linecap="round"/>
<path d="M104.101 3.43578C104.079 3.26163 103.919 3.07242 103.774 3" stroke="white" stroke-width="4" stroke-linecap="round"/>
<path d="M102.069 33.3408C101.938 34.1613 101.861 35.9729 103.122 35.9729C103.543 35.9729 103.898 35.4557 104.078 35.0955C104.49 34.2712 103.788 33.1055 102.771 33.1653C102.253 33.1958 102.85 34.0468 102.947 34.2181C103.156 34.5902 103.674 34.6945 104.097 34.7348C105.176 34.8375 103.951 34.1452 103.649 33.6917" stroke="white" stroke-width="4" stroke-linecap="round"/>
<path d="M103.853 35.8936C103.693 35.8736 103.645 35.5053 103.802 35.4993C104.015 35.4911 104.198 35.524 104.379 35.4336" stroke="white" stroke-width="4" stroke-linecap="round"/>
<path d="M116.857 19.2927C116.954 19.5222 117.697 21.1759 118.017 20.8563C118.193 20.68 118.313 19.9534 118.313 19.7061C118.313 19.2597 117.64 18.9947 117.752 19.4949C117.765 19.5568 118.026 19.7878 118.053 19.742C118.163 19.5483 117.723 19.5336 117.648 19.5353C117.121 19.5479 117.1 19.8222 117.1 20.2632" stroke="white" stroke-width="4" stroke-linecap="round"/>
<path d="M117.947 20.6887C117.789 20.6887 117.568 20.5938 117.449 20.7126C117.358 20.8039 117.253 20.7375 117.241 20.6273C117.238 20.6016 117.201 20.5566 117.18 20.5421C117.124 20.5038 117.167 20.4267 117.111 20.3819C117.038 20.323 116.919 20.2675 116.873 20.1978" stroke="white" stroke-width="4" stroke-linecap="round"/>
<path d="M116.069 19.3579C115.94 19.6174 115.125 20.2481 115.674 20.5618C115.729 20.5929 115.892 20.7856 115.922 20.8467C115.962 20.9254 116.015 20.9798 116.06 21.0534C116.096 21.112 116.146 21.076 116.193 21.1178C116.34 21.2461 116.695 21.5273 116.896 21.5497C116.924 21.5528 117.11 21.6742 117.154 21.7059C117.258 21.7815 117.369 21.7151 117.475 21.7151" stroke="white" stroke-width="2" stroke-linecap="round"/>
<path d="M105.022 33.4028C105.86 32.3383 106.664 31.2551 107.453 30.1554C107.762 29.7259 108.017 29.2384 108.383 28.8553C109 28.2096 109.635 27.6023 110.255 26.9615C110.787 26.4105 111.514 26.056 112.089 25.5451C112.347 25.3153 112.645 25.1588 112.905 24.9296C113.108 24.7508 113.312 24.569 113.508 24.3831C113.883 24.0289 114.219 23.6612 114.576 23.2839C114.915 22.9257 115.109 22.4246 115.424 22.0402C115.632 21.786 115.873 21.5009 116.046 21.2206C116.272 20.8538 116.328 20.9053 116.328 20.4009" stroke="white" stroke-width="2" stroke-linecap="round"/>
<path d="M105.927 6.21191C106.256 6.36408 106.551 6.90011 106.781 7.17607C107.196 7.674 107.622 8.16245 108.037 8.66155C108.548 9.27605 109.051 9.87426 109.51 10.5333C110.024 11.2712 110.554 12.007 111.014 12.782C111.405 13.4394 111.951 14.0163 112.403 14.6349C112.605 14.9119 112.856 15.2341 113.119 15.4577C113.377 15.6778 113.708 15.8086 113.951 16.0513C114.385 16.4858 114.816 16.915 115.242 17.3609C115.647 17.7851 116.082 18.2379 116.576 18.5606C116.892 18.7662 117.06 19.1008 117.459 19.1008" stroke="white" stroke-width="2" stroke-linecap="round"/>
</svg>
